{"accessors":[{"name":"Cylinder_2-Mesh_positions","componentType":5126,"count":2275,"min":[-22.371191024780273,11.445302963256836,-58.983821868896484],"max":[22.634294509887695,56.422183990478516,-49.946876525878906],"type":"VEC3","bufferView":0,"byteOffset":0},{"name":"Cylinder_2-Mesh_normals","componentType":5126,"count":2275,"min":[-0.9999996423721313,-0.9994862079620361,-0.9999996423721313],"max":[0.9999996423721313,0.9994862079620361,0.9999996423721313],"type":"VEC3","bufferView":0,"byteOffset":54600},{"name":"Cylinder_2-Mesh_texcoords","componentType":5126,"count":2275,"min":[0,0],"max":[1,1],"type":"VEC2","bufferView":1,"byteOffset":0},{"name":"Cylinder_2-Mesh_0_indices","componentType":5123,"count":294,"min":[0],"max":[196],"type":"SCALAR","bufferView":2,"byteOffset":0},{"name":"Cylinder_2-Mesh_1_indices","componentType":5123,"count":11760,"min":[0],"max":[2176],"type":"SCALAR","bufferView":2,"byteOffset":588},{"name":"Cylinder_2-Mesh_2_indices","componentType":5123,"count":294,"min":[235],"max":[2274],"type":"SCALAR","bufferView":2,"byteOffset":24108},{"name":"Cylinder-Mesh_positions","componentType":5126,"count":2275,"min":[-25.083885192871094,8.733635902404785,-58.3883056640625],"max":[25.346988677978516,59.13385009765625,-50.54239273071289],"type":"VEC3","bufferView":0,"byteOffset":27300},{"name":"Cylinder-Mesh_normals","componentType":5126,"count":2275,"min":[-0.9999996423721313,-0.9994862079620361,-0.9999996423721313],"max":[0.9999996423721313,0.9994862079620361,0.9999996423721313],"type":"VEC3","bufferView":0,"byteOffset":81900},{"name":"Cylinder-Mesh_texcoords","componentType":5126,"count":2275,"min":[0,0],"max":[1,1],"type":"VEC2","bufferView":1,"byteOffset":18200},{"name":"Cylinder-Mesh_0_indices","componentType":5123,"count":12348,"min":[0],"max":[2274],"type":"SCALAR","bufferView":2,"byteOffset":24696}],"asset":{"generator":"obj2gltf","version":"2.0"},"buffers":[{"name":"input","byteLength":194992,"uri":"data:application/octet-stream;base64,"}],"bufferViews":[{"name":"bufferView_0","buffer":0,"byteLength":109200,"byteOffset":0,"byteStride":12,"target":34962},{"name":"bufferView_1","buffer":0,"byteLength":36400,"byteOffset":109200,"byteStride":8,"target":34962},{"name":"bufferView_2","buffer":0,"byteLength":49392,"byteOffset":145600,"target":34963}],"materials":[{"name":"ANIMATION","pbrMetallicRoughness":{"baseColorFactor":[0.5,0.5,0.5,1],"metallicFactor":0,"roughnessFactor":1},"emissiveFactor":[0,0,0],"alphaMode":"OPAQUE","doubleSided":false},{"name":"Path","pbrMetallicRoughness":{"baseColorFactor":[0.5,0.5,0.5,1],"metallicFactor":0,"roughnessFactor":1},"emissiveFactor":[0,0,0],"alphaMode":"OPAQUE","doubleSided":false},{"name":"EE","pbrMetallicRoughness":{"baseColorFactor":[0.5,0.5,0.5,1],"metallicFactor":0,"roughnessFactor":1},"emissiveFactor":[0,0,0],"alphaMode":"OPAQUE","doubleSided":false},{"name":"GREEN","pbrMetallicRoughness":{"baseColorFactor":[0.5,0.5,0.5,1],"metallicFactor":0,"roughnessFactor":1},"emissiveFactor":[0,0,0],"alphaMode":"OPAQUE","doubleSided":false}],"meshes":[{"name":"Cylinder_2-Mesh","primitives":[{"attributes":{"POSITION":0,"NORMAL":1,"TEXCOORD_0":2},"indices":3,"material":0,"mode":4},{"attributes":{"POSITION":0,"NORMAL":1,"TEXCOORD_0":2},"indices":4,"material":1,"mode":4},{"attributes":{"POSITION":0,"NORMAL":1,"TEXCOORD_0":2},"indices":5,"material":2,"mode":4}]},{"name":"Cylinder-Mesh","primitives":[{"attributes":{"POSITION":6,"NORMAL":7,"TEXCOORD_0":8},"indices":9,"material":3,"mode":4}]}],"nodes":[{"name":"Cylinder_2","mesh":0},{"name":"Cylinder","mesh":1}],"scene":0,"scenes":[{"nodes":[0,1]}]}
